# Blender 4.5.3 LTS
# www.blender.org
mtllib indicator.mtl
o Plane
v -1.000000 0.000000 1.000000
v 1.000000 0.000000 1.000000
v -1.000000 0.000000 -1.000000
v 1.000000 0.000000 -1.000000
v -1.000000 0.000000 -0.714286
v -1.000000 0.000000 -0.428571
v -1.000000 0.000000 0.428571
v -1.000000 0.000000 0.714286
v -0.714286 0.000000 1.000000
v -0.428571 0.000000 1.000000
v 0.428571 0.000000 1.000000
v 0.714286 0.000000 1.000000
v 1.000000 0.000000 0.714286
v 1.000000 0.000000 0.428571
v 1.000000 0.000000 -0.428571
v 1.000000 0.000000 -0.714286
v 0.714286 0.000000 -1.000000
v 0.428571 0.000000 -1.000000
v -0.428571 0.000000 -1.000000
v -0.714286 0.000000 -1.000000
v -0.714286 0.000000 0.714286
v -0.714286 0.000000 -0.714286
v 0.714286 0.000000 0.714286
v 0.714286 0.000000 -0.714286
vn -0.0000 1.0000 -0.0000
vt 0.857143 0.857143
vt 1.000000 0.857143
vt 1.000000 1.000000
vt 0.857143 1.000000
vt 0.000000 0.857143
vt 0.142857 0.857143
vt 0.142857 1.000000
vt 0.000000 1.000000
vt 0.714286 0.000000
vt 0.857143 0.000000
vt 0.857143 0.142857
vt 1.000000 0.285714
vt 1.000000 0.142857
vt 0.000000 0.000000
vt 0.142857 0.000000
vt 0.142857 0.142857
vt 0.000000 0.142857
vt 0.000000 0.714286
vt 0.285714 0.000000
vt 0.285714 1.000000
vt 0.714286 1.000000
vt 1.000000 0.000000
vt 1.000000 0.714286
vt 0.000000 0.285714
s 0
f 24/1/1 16/2/1 4/3/1 17/4/1
f 5/5/1 22/6/1 20/7/1 3/8/1
f 11/9/1 12/10/1 23/11/1
f 14/12/1 23/11/1 13/13/1
f 1/14/1 9/15/1 21/16/1 8/17/1
f 22/6/1 5/5/1 6/18/1
f 10/19/1 21/16/1 9/15/1
f 22/6/1 19/20/1 20/7/1
f 18/21/1 24/1/1 17/4/1
f 12/10/1 2/22/1 13/13/1 23/11/1
f 15/23/1 16/2/1 24/1/1
f 21/16/1 7/24/1 8/17/1
